<svg xmlns="http://www.w3.org/2000/svg" width="210mm" height="297mm" viewBox="0 0 210 297"><g transform="translate(16 6)"><rect width="89" height="57" fill="#fdfcf8"/><rect width="24" height="57" fill="#2f6db5"/><path d="M5.8 0.8l2.77 1.6v3.2L5.8 7.2l-2.77-1.6v-3.2Z" fill="none" stroke="#fff" stroke-opacity=".13" stroke-width=".35"/><path d="M12 0.8l2.77 1.6v3.2L12 7.2l-2.77-1.6v-3.2Z" fill="none" stroke="#fff" stroke-opacity=".13" stroke-width=".35"/><path d="M18.2 0.8l2.77 1.6v3.2L18.2 7.2l-2.77-1.6v-3.2Z" fill="none" stroke="#fff" stroke-opacity=".13" stroke-width=".35"/><path d="M5.8 49.8l2.77 1.6v3.2L5.8 56.2l-2.77-1.6v-3.2Z" fill="none" stroke="#fff" stroke-opacity=".13" stroke-width=".35"/><path d="M12 49.8l2.77 1.6v3.2L12 56.2l-2.77-1.6v-3.2Z" fill="none" stroke="#fff" stroke-opacity=".13" stroke-width=".35"/><path d="M18.2 49.8l2.77 1.6v3.2L18.2 56.2l-2.77-1.6v-3.2Z" fill="none" stroke="#fff" stroke-opacity=".13" stroke-width=".35"/><g transform="translate(4 14) scale(0.67)" fill="none" stroke="#fff" stroke-width="1.7" stroke-linecap="round" stroke-linejoin="round"><path d="M9 3h6M10 3v3c-3 1-4 4-4 7s2 6 3 8h6c1-2 3-5 3-8s-1-6-4-7V3M6 10c-2 0-3 1.5-3 3.5M18 10c2 0 3 1.5 3 3.5M7.5 14h9"/></g><text x="12.0" y="44" font-family="IBM Plex Sans" font-weight="700" font-size="6" text-anchor="middle" fill="#fff" letter-spacing=".4">H01</text><text x="12.0" y="49.5" font-family="IBM Plex Sans" font-weight="600" font-size="2" text-anchor="middle" fill="#fff" fill-opacity=".85" letter-spacing=".5">KOD KARTY</text><text x="29" y="9.5" font-family="IBM Plex Sans" font-weight="600" font-size="2.5" letter-spacing=".7" fill="#2f6db5">HUMANISTYKA · NIEBIESKI</text><text x="29" y="26.24" font-family="Cinzel" font-weight="700" font-size="6.4" fill="#15303a">ARCHEOLOGIA</text><line x1="29" y1="36.5" x2="84" y2="36.5" stroke="#15303a" stroke-opacity=".18" stroke-width=".3"/><text x="29" y="41" font-family="IBM Plex Sans" font-size="2.3" fill="#15303a" fill-opacity=".7">Runda: 9 pytań, po jednym dla każdej inteligencji</text><g transform="translate(29 43.4) scale(0.46)"><path d="M3.5 8.5a1.6 1.6 0 1 1 0-.01M5.1 8.3V1.6l3.6 1.1v1.7L5.1 3.3" fill="none" stroke="#c2185b" stroke-width="1.1" stroke-linecap="round" stroke-linejoin="round"/></g><g transform="translate(35.05 43.4) scale(0.46)"><path d="M1 5c2-3.2 6-3.2 8 0c-2 3.2-6 3.2-8 0ZM5 3.8a1.2 1.2 0 1 0 .01 0" fill="none" stroke="#1e78c8" stroke-width="1.1" stroke-linecap="round" stroke-linejoin="round"/></g><g transform="translate(41.1 43.4) scale(0.46)"><path d="M1.5 1.8h7v4.6H4.2L2.2 8.4V6.4h-.7Z" fill="none" stroke="#795548" stroke-width="1.1" stroke-linecap="round" stroke-linejoin="round"/></g><g transform="translate(47.15 43.4) scale(0.46)"><path d="M1.5 3.2h3M3 1.7v3M5.8 3.2h3M1.5 6.8h3M5.8 6.2h3M5.8 7.6h3" fill="none" stroke="#3949ab" stroke-width="1.1" stroke-linecap="round" stroke-linejoin="round"/></g><g transform="translate(53.2 43.4) scale(0.46)"><path d="M1 5h8M2.2 3v4M7.8 3v4M3.4 3.8v2.4M6.6 3.8v2.4" fill="none" stroke="#e65100" stroke-width="1.1" stroke-linecap="round" stroke-linejoin="round"/></g><g transform="translate(59.25 43.4) scale(0.46)"><path d="M3.4 2.3a1.2 1.2 0 1 0 .01 0M.9 8.6c0-2.1 5-2.1 5 0M7 2.2a1 1 0 1 0 .01 0M6.6 5.4c1.5-.3 2.7.5 2.7 2.2" fill="none" stroke="#00897b" stroke-width="1.1" stroke-linecap="round" stroke-linejoin="round"/></g><g transform="translate(65.3 43.4) scale(0.46)"><path d="M5 8.6L1.7 5.2a1.9 1.9 0 0 1 3.3-2.6a1.9 1.9 0 0 1 3.3 2.6Z" fill="none" stroke="#8e24aa" stroke-width="1.1" stroke-linecap="round" stroke-linejoin="round"/></g><g transform="translate(71.35 43.4) scale(0.46)"><path d="M1.8 8.2C1.8 3.2 5 1.6 8.6 1.6c0 3.6-1.6 6.6-6.8 6.6ZM1.8 8.2L6 4" fill="none" stroke="#3f9142" stroke-width="1.1" stroke-linecap="round" stroke-linejoin="round"/></g><g transform="translate(77.4 43.4) scale(0.46)"><path d="M5 1l1.2 2.8 2.8.3-2.1 1.9.6 2.9L5 7.4 2.5 8.9l.6-2.9L1 4.1l2.8-.3Z" fill="none" stroke="#b58900" stroke-width="1.1" stroke-linecap="round" stroke-linejoin="round"/></g><text x="85" y="53.4" font-family="Cinzel" font-weight="700" font-size="2.3" text-anchor="end" fill="#15303a" fill-opacity=".45" letter-spacing=".6">HISTADA</text></g><g transform="translate(105 6)"><rect width="89" height="57" fill="#fdfcf8"/><rect width="24" height="57" fill="#2f6db5"/><path d="M5.8 0.8l2.77 1.6v3.2L5.8 7.2l-2.77-1.6v-3.2Z" fill="none" stroke="#fff" stroke-opacity=".13" stroke-width=".35"/><path d="M12 0.8l2.77 1.6v3.2L12 7.2l-2.77-1.6v-3.2Z" fill="none" stroke="#fff" stroke-opacity=".13" stroke-width=".35"/><path d="M18.2 0.8l2.77 1.6v3.2L18.2 7.2l-2.77-1.6v-3.2Z" fill="none" stroke="#fff" stroke-opacity=".13" stroke-width=".35"/><path d="M5.8 49.8l2.77 1.6v3.2L5.8 56.2l-2.77-1.6v-3.2Z" fill="none" stroke="#fff" stroke-opacity=".13" stroke-width=".35"/><path d="M12 49.8l2.77 1.6v3.2L12 56.2l-2.77-1.6v-3.2Z" fill="none" stroke="#fff" stroke-opacity=".13" stroke-width=".35"/><path d="M18.2 49.8l2.77 1.6v3.2L18.2 56.2l-2.77-1.6v-3.2Z" fill="none" stroke="#fff" stroke-opacity=".13" stroke-width=".35"/><g transform="translate(4 14) scale(0.67)" fill="none" stroke="#fff" stroke-width="1.7" stroke-linecap="round" stroke-linejoin="round"><path d="M3 16c3 3 13 3 16 0M3 16l2-3h11l3 3M19 14c2-1 3-2.5 2-4.5M11 13V10M11 10c-1.6-2-.6-4.5 1-6 1.4 1.6 1.4 4-1 6"/></g><text x="12.0" y="44" font-family="IBM Plex Sans" font-weight="700" font-size="6" text-anchor="middle" fill="#fff" letter-spacing=".4">H02</text><text x="12.0" y="49.5" font-family="IBM Plex Sans" font-weight="600" font-size="2" text-anchor="middle" fill="#fff" fill-opacity=".85" letter-spacing=".5">KOD KARTY</text><text x="29" y="9.5" font-family="IBM Plex Sans" font-weight="600" font-size="2.5" letter-spacing=".7" fill="#2f6db5">HUMANISTYKA · NIEBIESKI</text><text x="29" y="26.24" font-family="Cinzel" font-weight="700" font-size="6.4" fill="#15303a">FILOZOFIA</text><line x1="29" y1="36.5" x2="84" y2="36.5" stroke="#15303a" stroke-opacity=".18" stroke-width=".3"/><text x="29" y="41" font-family="IBM Plex Sans" font-size="2.3" fill="#15303a" fill-opacity=".7">Runda: 9 pytań, po jednym dla każdej inteligencji</text><g transform="translate(29 43.4) scale(0.46)"><path d="M3.5 8.5a1.6 1.6 0 1 1 0-.01M5.1 8.3V1.6l3.6 1.1v1.7L5.1 3.3" fill="none" stroke="#c2185b" stroke-width="1.1" stroke-linecap="round" stroke-linejoin="round"/></g><g transform="translate(35.05 43.4) scale(0.46)"><path d="M1 5c2-3.2 6-3.2 8 0c-2 3.2-6 3.2-8 0ZM5 3.8a1.2 1.2 0 1 0 .01 0" fill="none" stroke="#1e78c8" stroke-width="1.1" stroke-linecap="round" stroke-linejoin="round"/></g><g transform="translate(41.1 43.4) scale(0.46)"><path d="M1.5 1.8h7v4.6H4.2L2.2 8.4V6.4h-.7Z" fill="none" stroke="#795548" stroke-width="1.1" stroke-linecap="round" stroke-linejoin="round"/></g><g transform="translate(47.15 43.4) scale(0.46)"><path d="M1.5 3.2h3M3 1.7v3M5.8 3.2h3M1.5 6.8h3M5.8 6.2h3M5.8 7.6h3" fill="none" stroke="#3949ab" stroke-width="1.1" stroke-linecap="round" stroke-linejoin="round"/></g><g transform="translate(53.2 43.4) scale(0.46)"><path d="M1 5h8M2.2 3v4M7.8 3v4M3.4 3.8v2.4M6.6 3.8v2.4" fill="none" stroke="#e65100" stroke-width="1.1" stroke-linecap="round" stroke-linejoin="round"/></g><g transform="translate(59.25 43.4) scale(0.46)"><path d="M3.4 2.3a1.2 1.2 0 1 0 .01 0M.9 8.6c0-2.1 5-2.1 5 0M7 2.2a1 1 0 1 0 .01 0M6.6 5.4c1.5-.3 2.7.5 2.7 2.2" fill="none" stroke="#00897b" stroke-width="1.1" stroke-linecap="round" stroke-linejoin="round"/></g><g transform="translate(65.3 43.4) scale(0.46)"><path d="M5 8.6L1.7 5.2a1.9 1.9 0 0 1 3.3-2.6a1.9 1.9 0 0 1 3.3 2.6Z" fill="none" stroke="#8e24aa" stroke-width="1.1" stroke-linecap="round" stroke-linejoin="round"/></g><g transform="translate(71.35 43.4) scale(0.46)"><path d="M1.8 8.2C1.8 3.2 5 1.6 8.6 1.6c0 3.6-1.6 6.6-6.8 6.6ZM1.8 8.2L6 4" fill="none" stroke="#3f9142" stroke-width="1.1" stroke-linecap="round" stroke-linejoin="round"/></g><g transform="translate(77.4 43.4) scale(0.46)"><path d="M5 1l1.2 2.8 2.8.3-2.1 1.9.6 2.9L5 7.4 2.5 8.9l.6-2.9L1 4.1l2.8-.3Z" fill="none" stroke="#b58900" stroke-width="1.1" stroke-linecap="round" stroke-linejoin="round"/></g><text x="85" y="53.4" font-family="Cinzel" font-weight="700" font-size="2.3" text-anchor="end" fill="#15303a" fill-opacity=".45" letter-spacing=".6">HISTADA</text></g><g transform="translate(16 63)"><rect width="89" height="57" fill="#fdfcf8"/><rect width="24" height="57" fill="#2f6db5"/><path d="M5.8 0.8l2.77 1.6v3.2L5.8 7.2l-2.77-1.6v-3.2Z" fill="none" stroke="#fff" stroke-opacity=".13" stroke-width=".35"/><path d="M12 0.8l2.77 1.6v3.2L12 7.2l-2.77-1.6v-3.2Z" fill="none" stroke="#fff" stroke-opacity=".13" stroke-width=".35"/><path d="M18.2 0.8l2.77 1.6v3.2L18.2 7.2l-2.77-1.6v-3.2Z" fill="none" stroke="#fff" stroke-opacity=".13" stroke-width=".35"/><path d="M5.8 49.8l2.77 1.6v3.2L5.8 56.2l-2.77-1.6v-3.2Z" fill="none" stroke="#fff" stroke-opacity=".13" stroke-width=".35"/><path d="M12 49.8l2.77 1.6v3.2L12 56.2l-2.77-1.6v-3.2Z" fill="none" stroke="#fff" stroke-opacity=".13" stroke-width=".35"/><path d="M18.2 49.8l2.77 1.6v3.2L18.2 56.2l-2.77-1.6v-3.2Z" fill="none" stroke="#fff" stroke-opacity=".13" stroke-width=".35"/><g transform="translate(4 14) scale(0.67)" fill="none" stroke="#fff" stroke-width="1.7" stroke-linecap="round" stroke-linejoin="round"><path d="M6 3h12M6 21h12M7 3c0 5 5 6 5 9s-5 4-5 9M17 3c0 5-5 6-5 9s5 4 5 9M9 18h6"/></g><text x="12.0" y="44" font-family="IBM Plex Sans" font-weight="700" font-size="6" text-anchor="middle" fill="#fff" letter-spacing=".4">H03</text><text x="12.0" y="49.5" font-family="IBM Plex Sans" font-weight="600" font-size="2" text-anchor="middle" fill="#fff" fill-opacity=".85" letter-spacing=".5">KOD KARTY</text><text x="29" y="9.5" font-family="IBM Plex Sans" font-weight="600" font-size="2.5" letter-spacing=".7" fill="#2f6db5">HUMANISTYKA · NIEBIESKI</text><text x="29" y="26.24" font-family="Cinzel" font-weight="700" font-size="6.4" fill="#15303a">HISTORIA</text><line x1="29" y1="36.5" x2="84" y2="36.5" stroke="#15303a" stroke-opacity=".18" stroke-width=".3"/><text x="29" y="41" font-family="IBM Plex Sans" font-size="2.3" fill="#15303a" fill-opacity=".7">Runda: 9 pytań, po jednym dla każdej inteligencji</text><g transform="translate(29 43.4) scale(0.46)"><path d="M3.5 8.5a1.6 1.6 0 1 1 0-.01M5.1 8.3V1.6l3.6 1.1v1.7L5.1 3.3" fill="none" stroke="#c2185b" stroke-width="1.1" stroke-linecap="round" stroke-linejoin="round"/></g><g transform="translate(35.05 43.4) scale(0.46)"><path d="M1 5c2-3.2 6-3.2 8 0c-2 3.2-6 3.2-8 0ZM5 3.8a1.2 1.2 0 1 0 .01 0" fill="none" stroke="#1e78c8" stroke-width="1.1" stroke-linecap="round" stroke-linejoin="round"/></g><g transform="translate(41.1 43.4) scale(0.46)"><path d="M1.5 1.8h7v4.6H4.2L2.2 8.4V6.4h-.7Z" fill="none" stroke="#795548" stroke-width="1.1" stroke-linecap="round" stroke-linejoin="round"/></g><g transform="translate(47.15 43.4) scale(0.46)"><path d="M1.5 3.2h3M3 1.7v3M5.8 3.2h3M1.5 6.8h3M5.8 6.2h3M5.8 7.6h3" fill="none" stroke="#3949ab" stroke-width="1.1" stroke-linecap="round" stroke-linejoin="round"/></g><g transform="translate(53.2 43.4) scale(0.46)"><path d="M1 5h8M2.2 3v4M7.8 3v4M3.4 3.8v2.4M6.6 3.8v2.4" fill="none" stroke="#e65100" stroke-width="1.1" stroke-linecap="round" stroke-linejoin="round"/></g><g transform="translate(59.25 43.4) scale(0.46)"><path d="M3.4 2.3a1.2 1.2 0 1 0 .01 0M.9 8.6c0-2.1 5-2.1 5 0M7 2.2a1 1 0 1 0 .01 0M6.6 5.4c1.5-.3 2.7.5 2.7 2.2" fill="none" stroke="#00897b" stroke-width="1.1" stroke-linecap="round" stroke-linejoin="round"/></g><g transform="translate(65.3 43.4) scale(0.46)"><path d="M5 8.6L1.7 5.2a1.9 1.9 0 0 1 3.3-2.6a1.9 1.9 0 0 1 3.3 2.6Z" fill="none" stroke="#8e24aa" stroke-width="1.1" stroke-linecap="round" stroke-linejoin="round"/></g><g transform="translate(71.35 43.4) scale(0.46)"><path d="M1.8 8.2C1.8 3.2 5 1.6 8.6 1.6c0 3.6-1.6 6.6-6.8 6.6ZM1.8 8.2L6 4" fill="none" stroke="#3f9142" stroke-width="1.1" stroke-linecap="round" stroke-linejoin="round"/></g><g transform="translate(77.4 43.4) scale(0.46)"><path d="M5 1l1.2 2.8 2.8.3-2.1 1.9.6 2.9L5 7.4 2.5 8.9l.6-2.9L1 4.1l2.8-.3Z" fill="none" stroke="#b58900" stroke-width="1.1" stroke-linecap="round" stroke-linejoin="round"/></g><text x="85" y="53.4" font-family="Cinzel" font-weight="700" font-size="2.3" text-anchor="end" fill="#15303a" fill-opacity=".45" letter-spacing=".6">HISTADA</text></g><g transform="translate(105 63)"><rect width="89" height="57" fill="#fdfcf8"/><rect width="24" height="57" fill="#2f6db5"/><path d="M5.8 0.8l2.77 1.6v3.2L5.8 7.2l-2.77-1.6v-3.2Z" fill="none" stroke="#fff" stroke-opacity=".13" stroke-width=".35"/><path d="M12 0.8l2.77 1.6v3.2L12 7.2l-2.77-1.6v-3.2Z" fill="none" stroke="#fff" stroke-opacity=".13" stroke-width=".35"/><path d="M18.2 0.8l2.77 1.6v3.2L18.2 7.2l-2.77-1.6v-3.2Z" fill="none" stroke="#fff" stroke-opacity=".13" stroke-width=".35"/><path d="M5.8 49.8l2.77 1.6v3.2L5.8 56.2l-2.77-1.6v-3.2Z" fill="none" stroke="#fff" stroke-opacity=".13" stroke-width=".35"/><path d="M12 49.8l2.77 1.6v3.2L12 56.2l-2.77-1.6v-3.2Z" fill="none" stroke="#fff" stroke-opacity=".13" stroke-width=".35"/><path d="M18.2 49.8l2.77 1.6v3.2L18.2 56.2l-2.77-1.6v-3.2Z" fill="none" stroke="#fff" stroke-opacity=".13" stroke-width=".35"/><g transform="translate(4 14) scale(0.67)" fill="none" stroke="#fff" stroke-width="1.7" stroke-linecap="round" stroke-linejoin="round"><path d="M3 4h11v8H8l-3 3v-3H3ZM11 12v4h5l3 3v-3h2V8h-5"/><path d="M6 10l2.5-5 2.5 5M7 8.5h3"/></g><text x="12.0" y="44" font-family="IBM Plex Sans" font-weight="700" font-size="6" text-anchor="middle" fill="#fff" letter-spacing=".4">H04</text><text x="12.0" y="49.5" font-family="IBM Plex Sans" font-weight="600" font-size="2" text-anchor="middle" fill="#fff" fill-opacity=".85" letter-spacing=".5">KOD KARTY</text><text x="29" y="9.5" font-family="IBM Plex Sans" font-weight="600" font-size="2.5" letter-spacing=".7" fill="#2f6db5">HUMANISTYKA · NIEBIESKI</text><text x="29" y="25.82" font-family="Cinzel" font-weight="700" font-size="5.2" fill="#15303a">JĘZYKOZNAWSTWO</text><line x1="29" y1="36.5" x2="84" y2="36.5" stroke="#15303a" stroke-opacity=".18" stroke-width=".3"/><text x="29" y="41" font-family="IBM Plex Sans" font-size="2.3" fill="#15303a" fill-opacity=".7">Runda: 9 pytań, po jednym dla każdej inteligencji</text><g transform="translate(29 43.4) scale(0.46)"><path d="M3.5 8.5a1.6 1.6 0 1 1 0-.01M5.1 8.3V1.6l3.6 1.1v1.7L5.1 3.3" fill="none" stroke="#c2185b" stroke-width="1.1" stroke-linecap="round" stroke-linejoin="round"/></g><g transform="translate(35.05 43.4) scale(0.46)"><path d="M1 5c2-3.2 6-3.2 8 0c-2 3.2-6 3.2-8 0ZM5 3.8a1.2 1.2 0 1 0 .01 0" fill="none" stroke="#1e78c8" stroke-width="1.1" stroke-linecap="round" stroke-linejoin="round"/></g><g transform="translate(41.1 43.4) scale(0.46)"><path d="M1.5 1.8h7v4.6H4.2L2.2 8.4V6.4h-.7Z" fill="none" stroke="#795548" stroke-width="1.1" stroke-linecap="round" stroke-linejoin="round"/></g><g transform="translate(47.15 43.4) scale(0.46)"><path d="M1.5 3.2h3M3 1.7v3M5.8 3.2h3M1.5 6.8h3M5.8 6.2h3M5.8 7.6h3" fill="none" stroke="#3949ab" stroke-width="1.1" stroke-linecap="round" stroke-linejoin="round"/></g><g transform="translate(53.2 43.4) scale(0.46)"><path d="M1 5h8M2.2 3v4M7.8 3v4M3.4 3.8v2.4M6.6 3.8v2.4" fill="none" stroke="#e65100" stroke-width="1.1" stroke-linecap="round" stroke-linejoin="round"/></g><g transform="translate(59.25 43.4) scale(0.46)"><path d="M3.4 2.3a1.2 1.2 0 1 0 .01 0M.9 8.6c0-2.1 5-2.1 5 0M7 2.2a1 1 0 1 0 .01 0M6.6 5.4c1.5-.3 2.7.5 2.7 2.2" fill="none" stroke="#00897b" stroke-width="1.1" stroke-linecap="round" stroke-linejoin="round"/></g><g transform="translate(65.3 43.4) scale(0.46)"><path d="M5 8.6L1.7 5.2a1.9 1.9 0 0 1 3.3-2.6a1.9 1.9 0 0 1 3.3 2.6Z" fill="none" stroke="#8e24aa" stroke-width="1.1" stroke-linecap="round" stroke-linejoin="round"/></g><g transform="translate(71.35 43.4) scale(0.46)"><path d="M1.8 8.2C1.8 3.2 5 1.6 8.6 1.6c0 3.6-1.6 6.6-6.8 6.6ZM1.8 8.2L6 4" fill="none" stroke="#3f9142" stroke-width="1.1" stroke-linecap="round" stroke-linejoin="round"/></g><g transform="translate(77.4 43.4) scale(0.46)"><path d="M5 1l1.2 2.8 2.8.3-2.1 1.9.6 2.9L5 7.4 2.5 8.9l.6-2.9L1 4.1l2.8-.3Z" fill="none" stroke="#b58900" stroke-width="1.1" stroke-linecap="round" stroke-linejoin="round"/></g><text x="85" y="53.4" font-family="Cinzel" font-weight="700" font-size="2.3" text-anchor="end" fill="#15303a" fill-opacity=".45" letter-spacing=".6">HISTADA</text></g><g transform="translate(16 120)"><rect width="89" height="57" fill="#fdfcf8"/><rect width="24" height="57" fill="#2f6db5"/><path d="M5.8 0.8l2.77 1.6v3.2L5.8 7.2l-2.77-1.6v-3.2Z" fill="none" stroke="#fff" stroke-opacity=".13" stroke-width=".35"/><path d="M12 0.8l2.77 1.6v3.2L12 7.2l-2.77-1.6v-3.2Z" fill="none" stroke="#fff" stroke-opacity=".13" stroke-width=".35"/><path d="M18.2 0.8l2.77 1.6v3.2L18.2 7.2l-2.77-1.6v-3.2Z" fill="none" stroke="#fff" stroke-opacity=".13" stroke-width=".35"/><path d="M5.8 49.8l2.77 1.6v3.2L5.8 56.2l-2.77-1.6v-3.2Z" fill="none" stroke="#fff" stroke-opacity=".13" stroke-width=".35"/><path d="M12 49.8l2.77 1.6v3.2L12 56.2l-2.77-1.6v-3.2Z" fill="none" stroke="#fff" stroke-opacity=".13" stroke-width=".35"/><path d="M18.2 49.8l2.77 1.6v3.2L18.2 56.2l-2.77-1.6v-3.2Z" fill="none" stroke="#fff" stroke-opacity=".13" stroke-width=".35"/><g transform="translate(4 14) scale(0.67)" fill="none" stroke="#fff" stroke-width="1.7" stroke-linecap="round" stroke-linejoin="round"><path d="M12 6c-3-2-6-2-9-1v14c3-1 6-1 9 1M12 6c3-2 6-2 9-1v14c-3-1-6-1-9 1M12 6v14M6 9h3M6 12h3M15 9h3M15 12h3"/></g><text x="12.0" y="44" font-family="IBM Plex Sans" font-weight="700" font-size="6" text-anchor="middle" fill="#fff" letter-spacing=".4">H05</text><text x="12.0" y="49.5" font-family="IBM Plex Sans" font-weight="600" font-size="2" text-anchor="middle" fill="#fff" fill-opacity=".85" letter-spacing=".5">KOD KARTY</text><text x="29" y="9.5" font-family="IBM Plex Sans" font-weight="600" font-size="2.5" letter-spacing=".7" fill="#2f6db5">HUMANISTYKA · NIEBIESKI</text><text x="29" y="25.4" font-family="Cinzel" font-weight="700" font-size="4.0" fill="#15303a">LITERATUROZNAWSTWO</text><line x1="29" y1="36.5" x2="84" y2="36.5" stroke="#15303a" stroke-opacity=".18" stroke-width=".3"/><text x="29" y="41" font-family="IBM Plex Sans" font-size="2.3" fill="#15303a" fill-opacity=".7">Runda: 9 pytań, po jednym dla każdej inteligencji</text><g transform="translate(29 43.4) scale(0.46)"><path d="M3.5 8.5a1.6 1.6 0 1 1 0-.01M5.1 8.3V1.6l3.6 1.1v1.7L5.1 3.3" fill="none" stroke="#c2185b" stroke-width="1.1" stroke-linecap="round" stroke-linejoin="round"/></g><g transform="translate(35.05 43.4) scale(0.46)"><path d="M1 5c2-3.2 6-3.2 8 0c-2 3.2-6 3.2-8 0ZM5 3.8a1.2 1.2 0 1 0 .01 0" fill="none" stroke="#1e78c8" stroke-width="1.1" stroke-linecap="round" stroke-linejoin="round"/></g><g transform="translate(41.1 43.4) scale(0.46)"><path d="M1.5 1.8h7v4.6H4.2L2.2 8.4V6.4h-.7Z" fill="none" stroke="#795548" stroke-width="1.1" stroke-linecap="round" stroke-linejoin="round"/></g><g transform="translate(47.15 43.4) scale(0.46)"><path d="M1.5 3.2h3M3 1.7v3M5.8 3.2h3M1.5 6.8h3M5.8 6.2h3M5.8 7.6h3" fill="none" stroke="#3949ab" stroke-width="1.1" stroke-linecap="round" stroke-linejoin="round"/></g><g transform="translate(53.2 43.4) scale(0.46)"><path d="M1 5h8M2.2 3v4M7.8 3v4M3.4 3.8v2.4M6.6 3.8v2.4" fill="none" stroke="#e65100" stroke-width="1.1" stroke-linecap="round" stroke-linejoin="round"/></g><g transform="translate(59.25 43.4) scale(0.46)"><path d="M3.4 2.3a1.2 1.2 0 1 0 .01 0M.9 8.6c0-2.1 5-2.1 5 0M7 2.2a1 1 0 1 0 .01 0M6.6 5.4c1.5-.3 2.7.5 2.7 2.2" fill="none" stroke="#00897b" stroke-width="1.1" stroke-linecap="round" stroke-linejoin="round"/></g><g transform="translate(65.3 43.4) scale(0.46)"><path d="M5 8.6L1.7 5.2a1.9 1.9 0 0 1 3.3-2.6a1.9 1.9 0 0 1 3.3 2.6Z" fill="none" stroke="#8e24aa" stroke-width="1.1" stroke-linecap="round" stroke-linejoin="round"/></g><g transform="translate(71.35 43.4) scale(0.46)"><path d="M1.8 8.2C1.8 3.2 5 1.6 8.6 1.6c0 3.6-1.6 6.6-6.8 6.6ZM1.8 8.2L6 4" fill="none" stroke="#3f9142" stroke-width="1.1" stroke-linecap="round" stroke-linejoin="round"/></g><g transform="translate(77.4 43.4) scale(0.46)"><path d="M5 1l1.2 2.8 2.8.3-2.1 1.9.6 2.9L5 7.4 2.5 8.9l.6-2.9L1 4.1l2.8-.3Z" fill="none" stroke="#b58900" stroke-width="1.1" stroke-linecap="round" stroke-linejoin="round"/></g><text x="85" y="53.4" font-family="Cinzel" font-weight="700" font-size="2.3" text-anchor="end" fill="#15303a" fill-opacity=".45" letter-spacing=".6">HISTADA</text></g><g transform="translate(105 120)"><rect width="89" height="57" fill="#fdfcf8"/><rect width="24" height="57" fill="#2f6db5"/><path d="M5.8 0.8l2.77 1.6v3.2L5.8 7.2l-2.77-1.6v-3.2Z" fill="none" stroke="#fff" stroke-opacity=".13" stroke-width=".35"/><path d="M12 0.8l2.77 1.6v3.2L12 7.2l-2.77-1.6v-3.2Z" fill="none" stroke="#fff" stroke-opacity=".13" stroke-width=".35"/><path d="M18.2 0.8l2.77 1.6v3.2L18.2 7.2l-2.77-1.6v-3.2Z" fill="none" stroke="#fff" stroke-opacity=".13" stroke-width=".35"/><path d="M5.8 49.8l2.77 1.6v3.2L5.8 56.2l-2.77-1.6v-3.2Z" fill="none" stroke="#fff" stroke-opacity=".13" stroke-width=".35"/><path d="M12 49.8l2.77 1.6v3.2L12 56.2l-2.77-1.6v-3.2Z" fill="none" stroke="#fff" stroke-opacity=".13" stroke-width=".35"/><path d="M18.2 49.8l2.77 1.6v3.2L18.2 56.2l-2.77-1.6v-3.2Z" fill="none" stroke="#fff" stroke-opacity=".13" stroke-width=".35"/><g transform="translate(4 14) scale(0.67)" fill="none" stroke="#fff" stroke-width="1.7" stroke-linecap="round" stroke-linejoin="round"><path d="M12 2v4M10 4h4M5 21V11l7-5 7 5v10ZM10 21v-5a2 2 0 0 1 4 0v5M3 21h18"/></g><text x="12.0" y="44" font-family="IBM Plex Sans" font-weight="700" font-size="6" text-anchor="middle" fill="#fff" letter-spacing=".4">H06</text><text x="12.0" y="49.5" font-family="IBM Plex Sans" font-weight="600" font-size="2" text-anchor="middle" fill="#fff" fill-opacity=".85" letter-spacing=".5">KOD KARTY</text><text x="29" y="9.5" font-family="IBM Plex Sans" font-weight="600" font-size="2.5" letter-spacing=".7" fill="#2f6db5">HUMANISTYKA · NIEBIESKI</text><text x="29" y="22.66" font-family="Cinzel" font-weight="700" font-size="6.4" fill="#15303a">KULTURA I</text><text x="29" y="29.82" font-family="Cinzel" font-weight="700" font-size="6.4" fill="#15303a">RELIGIA</text><line x1="29" y1="36.5" x2="84" y2="36.5" stroke="#15303a" stroke-opacity=".18" stroke-width=".3"/><text x="29" y="41" font-family="IBM Plex Sans" font-size="2.3" fill="#15303a" fill-opacity=".7">Runda: 9 pytań, po jednym dla każdej inteligencji</text><g transform="translate(29 43.4) scale(0.46)"><path d="M3.5 8.5a1.6 1.6 0 1 1 0-.01M5.1 8.3V1.6l3.6 1.1v1.7L5.1 3.3" fill="none" stroke="#c2185b" stroke-width="1.1" stroke-linecap="round" stroke-linejoin="round"/></g><g transform="translate(35.05 43.4) scale(0.46)"><path d="M1 5c2-3.2 6-3.2 8 0c-2 3.2-6 3.2-8 0ZM5 3.8a1.2 1.2 0 1 0 .01 0" fill="none" stroke="#1e78c8" stroke-width="1.1" stroke-linecap="round" stroke-linejoin="round"/></g><g transform="translate(41.1 43.4) scale(0.46)"><path d="M1.5 1.8h7v4.6H4.2L2.2 8.4V6.4h-.7Z" fill="none" stroke="#795548" stroke-width="1.1" stroke-linecap="round" stroke-linejoin="round"/></g><g transform="translate(47.15 43.4) scale(0.46)"><path d="M1.5 3.2h3M3 1.7v3M5.8 3.2h3M1.5 6.8h3M5.8 6.2h3M5.8 7.6h3" fill="none" stroke="#3949ab" stroke-width="1.1" stroke-linecap="round" stroke-linejoin="round"/></g><g transform="translate(53.2 43.4) scale(0.46)"><path d="M1 5h8M2.2 3v4M7.8 3v4M3.4 3.8v2.4M6.6 3.8v2.4" fill="none" stroke="#e65100" stroke-width="1.1" stroke-linecap="round" stroke-linejoin="round"/></g><g transform="translate(59.25 43.4) scale(0.46)"><path d="M3.4 2.3a1.2 1.2 0 1 0 .01 0M.9 8.6c0-2.1 5-2.1 5 0M7 2.2a1 1 0 1 0 .01 0M6.6 5.4c1.5-.3 2.7.5 2.7 2.2" fill="none" stroke="#00897b" stroke-width="1.1" stroke-linecap="round" stroke-linejoin="round"/></g><g transform="translate(65.3 43.4) scale(0.46)"><path d="M5 8.6L1.7 5.2a1.9 1.9 0 0 1 3.3-2.6a1.9 1.9 0 0 1 3.3 2.6Z" fill="none" stroke="#8e24aa" stroke-width="1.1" stroke-linecap="round" stroke-linejoin="round"/></g><g transform="translate(71.35 43.4) scale(0.46)"><path d="M1.8 8.2C1.8 3.2 5 1.6 8.6 1.6c0 3.6-1.6 6.6-6.8 6.6ZM1.8 8.2L6 4" fill="none" stroke="#3f9142" stroke-width="1.1" stroke-linecap="round" stroke-linejoin="round"/></g><g transform="translate(77.4 43.4) scale(0.46)"><path d="M5 1l1.2 2.8 2.8.3-2.1 1.9.6 2.9L5 7.4 2.5 8.9l.6-2.9L1 4.1l2.8-.3Z" fill="none" stroke="#b58900" stroke-width="1.1" stroke-linecap="round" stroke-linejoin="round"/></g><text x="85" y="53.4" font-family="Cinzel" font-weight="700" font-size="2.3" text-anchor="end" fill="#15303a" fill-opacity=".45" letter-spacing=".6">HISTADA</text></g><g transform="translate(16 177)"><rect width="89" height="57" fill="#fdfcf8"/><rect width="24" height="57" fill="#2f6db5"/><path d="M5.8 0.8l2.77 1.6v3.2L5.8 7.2l-2.77-1.6v-3.2Z" fill="none" stroke="#fff" stroke-opacity=".13" stroke-width=".35"/><path d="M12 0.8l2.77 1.6v3.2L12 7.2l-2.77-1.6v-3.2Z" fill="none" stroke="#fff" stroke-opacity=".13" stroke-width=".35"/><path d="M18.2 0.8l2.77 1.6v3.2L18.2 7.2l-2.77-1.6v-3.2Z" fill="none" stroke="#fff" stroke-opacity=".13" stroke-width=".35"/><path d="M5.8 49.8l2.77 1.6v3.2L5.8 56.2l-2.77-1.6v-3.2Z" fill="none" stroke="#fff" stroke-opacity=".13" stroke-width=".35"/><path d="M12 49.8l2.77 1.6v3.2L12 56.2l-2.77-1.6v-3.2Z" fill="none" stroke="#fff" stroke-opacity=".13" stroke-width=".35"/><path d="M18.2 49.8l2.77 1.6v3.2L18.2 56.2l-2.77-1.6v-3.2Z" fill="none" stroke="#fff" stroke-opacity=".13" stroke-width=".35"/><g transform="translate(4 14) scale(0.67)" fill="none" stroke="#fff" stroke-width="1.7" stroke-linecap="round" stroke-linejoin="round"><ellipse cx="10" cy="7" rx="6" ry="2.5"/><path d="M4 7v4c0 1.4 2.7 2.5 6 2.5s6-1.1 6-2.5V7M8 15v3c0 1.4 2.7 2.5 6 2.5s6-1.1 6-2.5v-5c0-1.4-2.2-2.4-5-2.5"/></g><text x="12.0" y="44" font-family="IBM Plex Sans" font-weight="700" font-size="6" text-anchor="middle" fill="#fff" letter-spacing=".4">H07</text><text x="12.0" y="49.5" font-family="IBM Plex Sans" font-weight="600" font-size="2" text-anchor="middle" fill="#fff" fill-opacity=".85" letter-spacing=".5">KOD KARTY</text><text x="29" y="9.5" font-family="IBM Plex Sans" font-weight="600" font-size="2.5" letter-spacing=".7" fill="#2f6db5">HUMANISTYKA · NIEBIESKI</text><text x="29" y="22.66" font-family="Cinzel" font-weight="700" font-size="6.4" fill="#15303a">EKONOMIA I</text><text x="29" y="29.82" font-family="Cinzel" font-weight="700" font-size="6.4" fill="#15303a">FINANSE</text><line x1="29" y1="36.5" x2="84" y2="36.5" stroke="#15303a" stroke-opacity=".18" stroke-width=".3"/><text x="29" y="41" font-family="IBM Plex Sans" font-size="2.3" fill="#15303a" fill-opacity=".7">Runda: 9 pytań, po jednym dla każdej inteligencji</text><g transform="translate(29 43.4) scale(0.46)"><path d="M3.5 8.5a1.6 1.6 0 1 1 0-.01M5.1 8.3V1.6l3.6 1.1v1.7L5.1 3.3" fill="none" stroke="#c2185b" stroke-width="1.1" stroke-linecap="round" stroke-linejoin="round"/></g><g transform="translate(35.05 43.4) scale(0.46)"><path d="M1 5c2-3.2 6-3.2 8 0c-2 3.2-6 3.2-8 0ZM5 3.8a1.2 1.2 0 1 0 .01 0" fill="none" stroke="#1e78c8" stroke-width="1.1" stroke-linecap="round" stroke-linejoin="round"/></g><g transform="translate(41.1 43.4) scale(0.46)"><path d="M1.5 1.8h7v4.6H4.2L2.2 8.4V6.4h-.7Z" fill="none" stroke="#795548" stroke-width="1.1" stroke-linecap="round" stroke-linejoin="round"/></g><g transform="translate(47.15 43.4) scale(0.46)"><path d="M1.5 3.2h3M3 1.7v3M5.8 3.2h3M1.5 6.8h3M5.8 6.2h3M5.8 7.6h3" fill="none" stroke="#3949ab" stroke-width="1.1" stroke-linecap="round" stroke-linejoin="round"/></g><g transform="translate(53.2 43.4) scale(0.46)"><path d="M1 5h8M2.2 3v4M7.8 3v4M3.4 3.8v2.4M6.6 3.8v2.4" fill="none" stroke="#e65100" stroke-width="1.1" stroke-linecap="round" stroke-linejoin="round"/></g><g transform="translate(59.25 43.4) scale(0.46)"><path d="M3.4 2.3a1.2 1.2 0 1 0 .01 0M.9 8.6c0-2.1 5-2.1 5 0M7 2.2a1 1 0 1 0 .01 0M6.6 5.4c1.5-.3 2.7.5 2.7 2.2" fill="none" stroke="#00897b" stroke-width="1.1" stroke-linecap="round" stroke-linejoin="round"/></g><g transform="translate(65.3 43.4) scale(0.46)"><path d="M5 8.6L1.7 5.2a1.9 1.9 0 0 1 3.3-2.6a1.9 1.9 0 0 1 3.3 2.6Z" fill="none" stroke="#8e24aa" stroke-width="1.1" stroke-linecap="round" stroke-linejoin="round"/></g><g transform="translate(71.35 43.4) scale(0.46)"><path d="M1.8 8.2C1.8 3.2 5 1.6 8.6 1.6c0 3.6-1.6 6.6-6.8 6.6ZM1.8 8.2L6 4" fill="none" stroke="#3f9142" stroke-width="1.1" stroke-linecap="round" stroke-linejoin="round"/></g><g transform="translate(77.4 43.4) scale(0.46)"><path d="M5 1l1.2 2.8 2.8.3-2.1 1.9.6 2.9L5 7.4 2.5 8.9l.6-2.9L1 4.1l2.8-.3Z" fill="none" stroke="#b58900" stroke-width="1.1" stroke-linecap="round" stroke-linejoin="round"/></g><text x="85" y="53.4" font-family="Cinzel" font-weight="700" font-size="2.3" text-anchor="end" fill="#15303a" fill-opacity=".45" letter-spacing=".6">HISTADA</text></g><g transform="translate(105 177)"><rect width="89" height="57" fill="#fdfcf8"/><rect width="24" height="57" fill="#2f6db5"/><path d="M5.8 0.8l2.77 1.6v3.2L5.8 7.2l-2.77-1.6v-3.2Z" fill="none" stroke="#fff" stroke-opacity=".13" stroke-width=".35"/><path d="M12 0.8l2.77 1.6v3.2L12 7.2l-2.77-1.6v-3.2Z" fill="none" stroke="#fff" stroke-opacity=".13" stroke-width=".35"/><path d="M18.2 0.8l2.77 1.6v3.2L18.2 7.2l-2.77-1.6v-3.2Z" fill="none" stroke="#fff" stroke-opacity=".13" stroke-width=".35"/><path d="M5.8 49.8l2.77 1.6v3.2L5.8 56.2l-2.77-1.6v-3.2Z" fill="none" stroke="#fff" stroke-opacity=".13" stroke-width=".35"/><path d="M12 49.8l2.77 1.6v3.2L12 56.2l-2.77-1.6v-3.2Z" fill="none" stroke="#fff" stroke-opacity=".13" stroke-width=".35"/><path d="M18.2 49.8l2.77 1.6v3.2L18.2 56.2l-2.77-1.6v-3.2Z" fill="none" stroke="#fff" stroke-opacity=".13" stroke-width=".35"/><g transform="translate(4 14) scale(0.67)" fill="none" stroke="#fff" stroke-width="1.7" stroke-linecap="round" stroke-linejoin="round"><path d="M15 21v-3h2a2 2 0 0 0 2-2v-3l2-1-2-3c0-4-3-7-7-7S5 5 5 9c0 3 1 5 3 6v6M10.5 8.5a2 2 0 1 1 2.5 2.4V12"/></g><text x="12.0" y="44" font-family="IBM Plex Sans" font-weight="700" font-size="6" text-anchor="middle" fill="#fff" letter-spacing=".4">H08</text><text x="12.0" y="49.5" font-family="IBM Plex Sans" font-weight="600" font-size="2" text-anchor="middle" fill="#fff" fill-opacity=".85" letter-spacing=".5">KOD KARTY</text><text x="29" y="9.5" font-family="IBM Plex Sans" font-weight="600" font-size="2.5" letter-spacing=".7" fill="#2f6db5">HUMANISTYKA · NIEBIESKI</text><text x="29" y="26.24" font-family="Cinzel" font-weight="700" font-size="6.4" fill="#15303a">PSYCHOLOGIA</text><line x1="29" y1="36.5" x2="84" y2="36.5" stroke="#15303a" stroke-opacity=".18" stroke-width=".3"/><text x="29" y="41" font-family="IBM Plex Sans" font-size="2.3" fill="#15303a" fill-opacity=".7">Runda: 9 pytań, po jednym dla każdej inteligencji</text><g transform="translate(29 43.4) scale(0.46)"><path d="M3.5 8.5a1.6 1.6 0 1 1 0-.01M5.1 8.3V1.6l3.6 1.1v1.7L5.1 3.3" fill="none" stroke="#c2185b" stroke-width="1.1" stroke-linecap="round" stroke-linejoin="round"/></g><g transform="translate(35.05 43.4) scale(0.46)"><path d="M1 5c2-3.2 6-3.2 8 0c-2 3.2-6 3.2-8 0ZM5 3.8a1.2 1.2 0 1 0 .01 0" fill="none" stroke="#1e78c8" stroke-width="1.1" stroke-linecap="round" stroke-linejoin="round"/></g><g transform="translate(41.1 43.4) scale(0.46)"><path d="M1.5 1.8h7v4.6H4.2L2.2 8.4V6.4h-.7Z" fill="none" stroke="#795548" stroke-width="1.1" stroke-linecap="round" stroke-linejoin="round"/></g><g transform="translate(47.15 43.4) scale(0.46)"><path d="M1.5 3.2h3M3 1.7v3M5.8 3.2h3M1.5 6.8h3M5.8 6.2h3M5.8 7.6h3" fill="none" stroke="#3949ab" stroke-width="1.1" stroke-linecap="round" stroke-linejoin="round"/></g><g transform="translate(53.2 43.4) scale(0.46)"><path d="M1 5h8M2.2 3v4M7.8 3v4M3.4 3.8v2.4M6.6 3.8v2.4" fill="none" stroke="#e65100" stroke-width="1.1" stroke-linecap="round" stroke-linejoin="round"/></g><g transform="translate(59.25 43.4) scale(0.46)"><path d="M3.4 2.3a1.2 1.2 0 1 0 .01 0M.9 8.6c0-2.1 5-2.1 5 0M7 2.2a1 1 0 1 0 .01 0M6.6 5.4c1.5-.3 2.7.5 2.7 2.2" fill="none" stroke="#00897b" stroke-width="1.1" stroke-linecap="round" stroke-linejoin="round"/></g><g transform="translate(65.3 43.4) scale(0.46)"><path d="M5 8.6L1.7 5.2a1.9 1.9 0 0 1 3.3-2.6a1.9 1.9 0 0 1 3.3 2.6Z" fill="none" stroke="#8e24aa" stroke-width="1.1" stroke-linecap="round" stroke-linejoin="round"/></g><g transform="translate(71.35 43.4) scale(0.46)"><path d="M1.8 8.2C1.8 3.2 5 1.6 8.6 1.6c0 3.6-1.6 6.6-6.8 6.6ZM1.8 8.2L6 4" fill="none" stroke="#3f9142" stroke-width="1.1" stroke-linecap="round" stroke-linejoin="round"/></g><g transform="translate(77.4 43.4) scale(0.46)"><path d="M5 1l1.2 2.8 2.8.3-2.1 1.9.6 2.9L5 7.4 2.5 8.9l.6-2.9L1 4.1l2.8-.3Z" fill="none" stroke="#b58900" stroke-width="1.1" stroke-linecap="round" stroke-linejoin="round"/></g><text x="85" y="53.4" font-family="Cinzel" font-weight="700" font-size="2.3" text-anchor="end" fill="#15303a" fill-opacity=".45" letter-spacing=".6">HISTADA</text></g><g transform="translate(16 234)"><rect width="89" height="57" fill="#fdfcf8"/><rect width="24" height="57" fill="#2f6db5"/><path d="M5.8 0.8l2.77 1.6v3.2L5.8 7.2l-2.77-1.6v-3.2Z" fill="none" stroke="#fff" stroke-opacity=".13" stroke-width=".35"/><path d="M12 0.8l2.77 1.6v3.2L12 7.2l-2.77-1.6v-3.2Z" fill="none" stroke="#fff" stroke-opacity=".13" stroke-width=".35"/><path d="M18.2 0.8l2.77 1.6v3.2L18.2 7.2l-2.77-1.6v-3.2Z" fill="none" stroke="#fff" stroke-opacity=".13" stroke-width=".35"/><path d="M5.8 49.8l2.77 1.6v3.2L5.8 56.2l-2.77-1.6v-3.2Z" fill="none" stroke="#fff" stroke-opacity=".13" stroke-width=".35"/><path d="M12 49.8l2.77 1.6v3.2L12 56.2l-2.77-1.6v-3.2Z" fill="none" stroke="#fff" stroke-opacity=".13" stroke-width=".35"/><path d="M18.2 49.8l2.77 1.6v3.2L18.2 56.2l-2.77-1.6v-3.2Z" fill="none" stroke="#fff" stroke-opacity=".13" stroke-width=".35"/><g transform="translate(4 14) scale(0.67)" fill="none" stroke="#fff" stroke-width="1.7" stroke-linecap="round" stroke-linejoin="round"><path d="M2 9l10-5 10 5-10 5ZM6 11v5c3 3 9 3 12 0v-5M22 9v6"/></g><text x="12.0" y="44" font-family="IBM Plex Sans" font-weight="700" font-size="6" text-anchor="middle" fill="#fff" letter-spacing=".4">H09</text><text x="12.0" y="49.5" font-family="IBM Plex Sans" font-weight="600" font-size="2" text-anchor="middle" fill="#fff" fill-opacity=".85" letter-spacing=".5">KOD KARTY</text><text x="29" y="9.5" font-family="IBM Plex Sans" font-weight="600" font-size="2.5" letter-spacing=".7" fill="#2f6db5">HUMANISTYKA · NIEBIESKI</text><text x="29" y="26.24" font-family="Cinzel" font-weight="700" font-size="6.4" fill="#15303a">PEDAGOGIKA</text><line x1="29" y1="36.5" x2="84" y2="36.5" stroke="#15303a" stroke-opacity=".18" stroke-width=".3"/><text x="29" y="41" font-family="IBM Plex Sans" font-size="2.3" fill="#15303a" fill-opacity=".7">Runda: 9 pytań, po jednym dla każdej inteligencji</text><g transform="translate(29 43.4) scale(0.46)"><path d="M3.5 8.5a1.6 1.6 0 1 1 0-.01M5.1 8.3V1.6l3.6 1.1v1.7L5.1 3.3" fill="none" stroke="#c2185b" stroke-width="1.1" stroke-linecap="round" stroke-linejoin="round"/></g><g transform="translate(35.05 43.4) scale(0.46)"><path d="M1 5c2-3.2 6-3.2 8 0c-2 3.2-6 3.2-8 0ZM5 3.8a1.2 1.2 0 1 0 .01 0" fill="none" stroke="#1e78c8" stroke-width="1.1" stroke-linecap="round" stroke-linejoin="round"/></g><g transform="translate(41.1 43.4) scale(0.46)"><path d="M1.5 1.8h7v4.6H4.2L2.2 8.4V6.4h-.7Z" fill="none" stroke="#795548" stroke-width="1.1" stroke-linecap="round" stroke-linejoin="round"/></g><g transform="translate(47.15 43.4) scale(0.46)"><path d="M1.5 3.2h3M3 1.7v3M5.8 3.2h3M1.5 6.8h3M5.8 6.2h3M5.8 7.6h3" fill="none" stroke="#3949ab" stroke-width="1.1" stroke-linecap="round" stroke-linejoin="round"/></g><g transform="translate(53.2 43.4) scale(0.46)"><path d="M1 5h8M2.2 3v4M7.8 3v4M3.4 3.8v2.4M6.6 3.8v2.4" fill="none" stroke="#e65100" stroke-width="1.1" stroke-linecap="round" stroke-linejoin="round"/></g><g transform="translate(59.25 43.4) scale(0.46)"><path d="M3.4 2.3a1.2 1.2 0 1 0 .01 0M.9 8.6c0-2.1 5-2.1 5 0M7 2.2a1 1 0 1 0 .01 0M6.6 5.4c1.5-.3 2.7.5 2.7 2.2" fill="none" stroke="#00897b" stroke-width="1.1" stroke-linecap="round" stroke-linejoin="round"/></g><g transform="translate(65.3 43.4) scale(0.46)"><path d="M5 8.6L1.7 5.2a1.9 1.9 0 0 1 3.3-2.6a1.9 1.9 0 0 1 3.3 2.6Z" fill="none" stroke="#8e24aa" stroke-width="1.1" stroke-linecap="round" stroke-linejoin="round"/></g><g transform="translate(71.35 43.4) scale(0.46)"><path d="M1.8 8.2C1.8 3.2 5 1.6 8.6 1.6c0 3.6-1.6 6.6-6.8 6.6ZM1.8 8.2L6 4" fill="none" stroke="#3f9142" stroke-width="1.1" stroke-linecap="round" stroke-linejoin="round"/></g><g transform="translate(77.4 43.4) scale(0.46)"><path d="M5 1l1.2 2.8 2.8.3-2.1 1.9.6 2.9L5 7.4 2.5 8.9l.6-2.9L1 4.1l2.8-.3Z" fill="none" stroke="#b58900" stroke-width="1.1" stroke-linecap="round" stroke-linejoin="round"/></g><text x="85" y="53.4" font-family="Cinzel" font-weight="700" font-size="2.3" text-anchor="end" fill="#15303a" fill-opacity=".45" letter-spacing=".6">HISTADA</text></g><g transform="translate(105 234)"><rect width="89" height="57" fill="#fdfcf8"/><rect width="24" height="57" fill="#2f6db5"/><path d="M5.8 0.8l2.77 1.6v3.2L5.8 7.2l-2.77-1.6v-3.2Z" fill="none" stroke="#fff" stroke-opacity=".13" stroke-width=".35"/><path d="M12 0.8l2.77 1.6v3.2L12 7.2l-2.77-1.6v-3.2Z" fill="none" stroke="#fff" stroke-opacity=".13" stroke-width=".35"/><path d="M18.2 0.8l2.77 1.6v3.2L18.2 7.2l-2.77-1.6v-3.2Z" fill="none" stroke="#fff" stroke-opacity=".13" stroke-width=".35"/><path d="M5.8 49.8l2.77 1.6v3.2L5.8 56.2l-2.77-1.6v-3.2Z" fill="none" stroke="#fff" stroke-opacity=".13" stroke-width=".35"/><path d="M12 49.8l2.77 1.6v3.2L12 56.2l-2.77-1.6v-3.2Z" fill="none" stroke="#fff" stroke-opacity=".13" stroke-width=".35"/><path d="M18.2 49.8l2.77 1.6v3.2L18.2 56.2l-2.77-1.6v-3.2Z" fill="none" stroke="#fff" stroke-opacity=".13" stroke-width=".35"/><g transform="translate(4 14) scale(0.67)" fill="none" stroke="#fff" stroke-width="1.7" stroke-linecap="round" stroke-linejoin="round"><circle cx="12" cy="7" r="2.5"/><circle cx="5.5" cy="10" r="2"/><circle cx="18.5" cy="10" r="2"/><path d="M7 20c0-4 2.5-6 5-6s5 2 5 6M1.5 19c0-3 1.7-5 4-5M22.5 19c0-3-1.7-5-4-5"/></g><text x="12.0" y="44" font-family="IBM Plex Sans" font-weight="700" font-size="6" text-anchor="middle" fill="#fff" letter-spacing=".4">H10</text><text x="12.0" y="49.5" font-family="IBM Plex Sans" font-weight="600" font-size="2" text-anchor="middle" fill="#fff" fill-opacity=".85" letter-spacing=".5">KOD KARTY</text><text x="29" y="9.5" font-family="IBM Plex Sans" font-weight="600" font-size="2.5" letter-spacing=".7" fill="#2f6db5">HUMANISTYKA · NIEBIESKI</text><text x="29" y="26.24" font-family="Cinzel" font-weight="700" font-size="6.4" fill="#15303a">SOCJOLOGIA</text><line x1="29" y1="36.5" x2="84" y2="36.5" stroke="#15303a" stroke-opacity=".18" stroke-width=".3"/><text x="29" y="41" font-family="IBM Plex Sans" font-size="2.3" fill="#15303a" fill-opacity=".7">Runda: 9 pytań, po jednym dla każdej inteligencji</text><g transform="translate(29 43.4) scale(0.46)"><path d="M3.5 8.5a1.6 1.6 0 1 1 0-.01M5.1 8.3V1.6l3.6 1.1v1.7L5.1 3.3" fill="none" stroke="#c2185b" stroke-width="1.1" stroke-linecap="round" stroke-linejoin="round"/></g><g transform="translate(35.05 43.4) scale(0.46)"><path d="M1 5c2-3.2 6-3.2 8 0c-2 3.2-6 3.2-8 0ZM5 3.8a1.2 1.2 0 1 0 .01 0" fill="none" stroke="#1e78c8" stroke-width="1.1" stroke-linecap="round" stroke-linejoin="round"/></g><g transform="translate(41.1 43.4) scale(0.46)"><path d="M1.5 1.8h7v4.6H4.2L2.2 8.4V6.4h-.7Z" fill="none" stroke="#795548" stroke-width="1.1" stroke-linecap="round" stroke-linejoin="round"/></g><g transform="translate(47.15 43.4) scale(0.46)"><path d="M1.5 3.2h3M3 1.7v3M5.8 3.2h3M1.5 6.8h3M5.8 6.2h3M5.8 7.6h3" fill="none" stroke="#3949ab" stroke-width="1.1" stroke-linecap="round" stroke-linejoin="round"/></g><g transform="translate(53.2 43.4) scale(0.46)"><path d="M1 5h8M2.2 3v4M7.8 3v4M3.4 3.8v2.4M6.6 3.8v2.4" fill="none" stroke="#e65100" stroke-width="1.1" stroke-linecap="round" stroke-linejoin="round"/></g><g transform="translate(59.25 43.4) scale(0.46)"><path d="M3.4 2.3a1.2 1.2 0 1 0 .01 0M.9 8.6c0-2.1 5-2.1 5 0M7 2.2a1 1 0 1 0 .01 0M6.6 5.4c1.5-.3 2.7.5 2.7 2.2" fill="none" stroke="#00897b" stroke-width="1.1" stroke-linecap="round" stroke-linejoin="round"/></g><g transform="translate(65.3 43.4) scale(0.46)"><path d="M5 8.6L1.7 5.2a1.9 1.9 0 0 1 3.3-2.6a1.9 1.9 0 0 1 3.3 2.6Z" fill="none" stroke="#8e24aa" stroke-width="1.1" stroke-linecap="round" stroke-linejoin="round"/></g><g transform="translate(71.35 43.4) scale(0.46)"><path d="M1.8 8.2C1.8 3.2 5 1.6 8.6 1.6c0 3.6-1.6 6.6-6.8 6.6ZM1.8 8.2L6 4" fill="none" stroke="#3f9142" stroke-width="1.1" stroke-linecap="round" stroke-linejoin="round"/></g><g transform="translate(77.4 43.4) scale(0.46)"><path d="M5 1l1.2 2.8 2.8.3-2.1 1.9.6 2.9L5 7.4 2.5 8.9l.6-2.9L1 4.1l2.8-.3Z" fill="none" stroke="#b58900" stroke-width="1.1" stroke-linecap="round" stroke-linejoin="round"/></g><text x="85" y="53.4" font-family="Cinzel" font-weight="700" font-size="2.3" text-anchor="end" fill="#15303a" fill-opacity=".45" letter-spacing=".6">HISTADA</text></g><g stroke="#000" stroke-width=".25"><line x1="16" y1="0.8" x2="16" y2="4.8"/><line x1="16" y1="292.2" x2="16" y2="296.2"/><line x1="105" y1="0.8" x2="105" y2="4.8"/><line x1="105" y1="292.2" x2="105" y2="296.2"/><line x1="194" y1="0.8" x2="194" y2="4.8"/><line x1="194" y1="292.2" x2="194" y2="296.2"/><line x1="10.8" y1="6" x2="14.8" y2="6"/><line x1="195.2" y1="6" x2="199.2" y2="6"/><line x1="10.8" y1="63" x2="14.8" y2="63"/><line x1="195.2" y1="63" x2="199.2" y2="63"/><line x1="10.8" y1="120" x2="14.8" y2="120"/><line x1="195.2" y1="120" x2="199.2" y2="120"/><line x1="10.8" y1="177" x2="14.8" y2="177"/><line x1="195.2" y1="177" x2="199.2" y2="177"/><line x1="10.8" y1="234" x2="14.8" y2="234"/><line x1="195.2" y1="234" x2="199.2" y2="234"/><line x1="10.8" y1="291" x2="14.8" y2="291"/><line x1="195.2" y1="291" x2="199.2" y2="291"/></g><text transform="translate(8 148.5) rotate(-90)" font-family="IBM Plex Sans" font-size="2.6" text-anchor="middle" fill="#555">HISTADA · karty dziedzin 89 × 57 mm · awersy · arkusz 1/4 · druk w skali 100% · tnij wzdłuż znaczników</text></svg>