<svg xmlns="http://www.w3.org/2000/svg" width="297mm" height="210mm" viewBox="0 0 297 210"><g transform="translate(0.25 0)"><rect width="148" height="210" fill="#fdfcf8"/><rect width="148" height="3" fill="#15303a"/><text x="7" y="15" font-family="Cinzel" font-weight="700" font-size="7" fill="#15303a">PLAYER CHEAT SHEET</text><text x="7" y="20.5" font-family="IBM Plex Sans" font-weight="600" font-size="2.6" letter-spacing=".6" fill="#c9a23a">TURN SEQUENCE AND DICE</text><circle cx="10" cy="27" r="3" fill="#15303a"/><text x="10" y="28.1" font-family="IBM Plex Sans" font-weight="700" font-size="3" text-anchor="middle" fill="#fff">1</text><text x="16" y="28" font-family="IBM Plex Sans" font-size="2.9" fill="#15303a"><tspan font-weight="700">Roll</tspan> · white d12 = epoch, black d12 = time interval, 2 grey d6 = move</text><circle cx="10" cy="34.6" r="3" fill="#15303a"/><text x="10" y="35.7" font-family="IBM Plex Sans" font-weight="700" font-size="3" text-anchor="middle" fill="#fff">2</text><text x="16" y="35.6" font-family="IBM Plex Sans" font-size="2.9" fill="#15303a"><tspan font-weight="700">Move</tspan> · up to as many fields as the d6 show; port = sea route jump for 1 field</text><circle cx="10" cy="42.2" r="3" fill="#15303a"/><text x="10" y="43.300000000000004" font-family="IBM Plex Sans" font-weight="700" font-size="3" text-anchor="middle" fill="#fff">3</text><text x="16" y="43.2" font-family="IBM Plex Sans" font-size="2.9" fill="#15303a"><tspan font-weight="700">Card</tspan> · draw a domain card and put it on your sheet</text><circle cx="10" cy="49.800000000000004" r="3" fill="#15303a"/><text x="10" y="50.900000000000006" font-family="IBM Plex Sans" font-weight="700" font-size="3" text-anchor="middle" fill="#fff">4</text><text x="16" y="50.800000000000004" font-family="IBM Plex Sans" font-size="2.9" fill="#15303a"><tspan font-weight="700">Questions</tspan> · 9 questions: place × time × domain, one per intelligence</text><circle cx="10" cy="57.400000000000006" r="3" fill="#15303a"/><text x="10" y="58.50000000000001" font-family="IBM Plex Sans" font-weight="700" font-size="3" text-anchor="middle" fill="#fff">5</text><text x="16" y="58.400000000000006" font-family="IBM Plex Sans" font-size="2.9" fill="#15303a"><tspan font-weight="700">Points</tspan> · for a correct answer turn that intelligence's dial and the total</text><text x="7" y="68.0" font-family="IBM Plex Sans" font-weight="700" font-size="3.1" fill="#15303a">White d12 · epoch</text><text x="141" y="68.0" font-family="IBM Plex Sans" font-size="2.3" text-anchor="end" fill="#15303a" fill-opacity=".6">the black d12 splits the epoch into 12 intervals</text><rect x="7" y="71" width="134" height="7.3" fill="#15303a" fill-opacity=".05"/><path d="M11.5 71.9l3.3 2.4-1.3 3.9h-4l-1.3-3.9Z" fill="#fff" stroke="#15303a" stroke-width=".3"/><text x="11.5" y="76.2" font-family="IBM Plex Sans" font-weight="700" font-size="2.6" text-anchor="middle" fill="#15303a">1</text><text x="18" y="74.3" font-family="IBM Plex Sans" font-weight="600" font-size="2.8" fill="#15303a">Beginning of the Universe</text><text x="18" y="77.3" font-family="IBM Plex Sans" font-size="2.2" fill="#15303a" fill-opacity=".65">13.8 bn years ago – 4.5 bn years ago · 1st interval: 13.8 bn years ago – 13.03 bn years ago</text><path d="M11.5 79.2l3.3 2.4-1.3 3.9h-4l-1.3-3.9Z" fill="#fff" stroke="#15303a" stroke-width=".3"/><text x="11.5" y="83.5" font-family="IBM Plex Sans" font-weight="700" font-size="2.6" text-anchor="middle" fill="#15303a">2</text><text x="18" y="81.6" font-family="IBM Plex Sans" font-weight="600" font-size="2.8" fill="#15303a">Beginning of the Earth</text><text x="18" y="84.6" font-family="IBM Plex Sans" font-size="2.2" fill="#15303a" fill-opacity=".65">4.5 bn years ago – 5 m years ago · 1st interval: 4.5 bn years ago – 4.13 bn years ago</text><rect x="7" y="85.6" width="134" height="7.3" fill="#15303a" fill-opacity=".05"/><path d="M11.5 86.5l3.3 2.4-1.3 3.9h-4l-1.3-3.9Z" fill="#fff" stroke="#15303a" stroke-width=".3"/><text x="11.5" y="90.8" font-family="IBM Plex Sans" font-weight="700" font-size="2.6" text-anchor="middle" fill="#15303a">3</text><text x="18" y="88.9" font-family="IBM Plex Sans" font-weight="600" font-size="2.8" fill="#15303a">Prehistory</text><text x="18" y="91.9" font-family="IBM Plex Sans" font-size="2.2" fill="#15303a" fill-opacity=".65">5 m years ago – 5000 BC · 1st interval: 5 m years ago – 4.59 m years ago</text><path d="M11.5 93.8l3.3 2.4-1.3 3.9h-4l-1.3-3.9Z" fill="#fff" stroke="#15303a" stroke-width=".3"/><text x="11.5" y="98.1" font-family="IBM Plex Sans" font-weight="700" font-size="2.6" text-anchor="middle" fill="#15303a">4</text><text x="18" y="96.2" font-family="IBM Plex Sans" font-weight="600" font-size="2.8" fill="#15303a">Antiquity</text><text x="18" y="99.2" font-family="IBM Plex Sans" font-size="2.2" fill="#15303a" fill-opacity=".65">5000 BC – 500 AD · 1st interval: 5000 BC – 4542 BC</text><rect x="7" y="100.2" width="134" height="7.3" fill="#15303a" fill-opacity=".05"/><path d="M11.5 101.1l3.3 2.4-1.3 3.9h-4l-1.3-3.9Z" fill="#fff" stroke="#15303a" stroke-width=".3"/><text x="11.5" y="105.4" font-family="IBM Plex Sans" font-weight="700" font-size="2.6" text-anchor="middle" fill="#15303a">5</text><text x="18" y="103.5" font-family="IBM Plex Sans" font-weight="600" font-size="2.8" fill="#15303a">Middle Ages</text><text x="18" y="106.5" font-family="IBM Plex Sans" font-size="2.2" fill="#15303a" fill-opacity=".65">500–1500 AD · 1st interval: 500–583 AD</text><path d="M11.5 108.4l3.3 2.4-1.3 3.9h-4l-1.3-3.9Z" fill="#fff" stroke="#15303a" stroke-width=".3"/><text x="11.5" y="112.7" font-family="IBM Plex Sans" font-weight="700" font-size="2.6" text-anchor="middle" fill="#15303a">6</text><text x="18" y="110.8" font-family="IBM Plex Sans" font-weight="600" font-size="2.8" fill="#15303a">Renaissance – Age of Discovery</text><text x="18" y="113.8" font-family="IBM Plex Sans" font-size="2.2" fill="#15303a" fill-opacity=".65">1500–1800 AD · 1st interval: 1500–1525 AD</text><rect x="7" y="114.8" width="134" height="7.3" fill="#15303a" fill-opacity=".05"/><path d="M11.5 115.7l3.3 2.4-1.3 3.9h-4l-1.3-3.9Z" fill="#fff" stroke="#15303a" stroke-width=".3"/><text x="11.5" y="120" font-family="IBM Plex Sans" font-weight="700" font-size="2.6" text-anchor="middle" fill="#15303a">7</text><text x="18" y="118.1" font-family="IBM Plex Sans" font-weight="600" font-size="2.8" fill="#15303a">Industrial Revolution</text><text x="18" y="121.1" font-family="IBM Plex Sans" font-size="2.2" fill="#15303a" fill-opacity=".65">1800–1900 AD · 1st interval: 1800–1808 AD</text><path d="M11.5 123l3.3 2.4-1.3 3.9h-4l-1.3-3.9Z" fill="#fff" stroke="#15303a" stroke-width=".3"/><text x="11.5" y="127.3" font-family="IBM Plex Sans" font-weight="700" font-size="2.6" text-anchor="middle" fill="#15303a">8</text><text x="18" y="125.4" font-family="IBM Plex Sans" font-weight="600" font-size="2.8" fill="#15303a">Era of the World Wars</text><text x="18" y="128.4" font-family="IBM Plex Sans" font-size="2.2" fill="#15303a" fill-opacity=".65">1900–1950 AD · 1st interval: Jan 1900 – Mar 1904</text><rect x="7" y="129.4" width="134" height="7.3" fill="#15303a" fill-opacity=".05"/><path d="M11.5 130.3l3.3 2.4-1.3 3.9h-4l-1.3-3.9Z" fill="#fff" stroke="#15303a" stroke-width=".3"/><text x="11.5" y="134.6" font-family="IBM Plex Sans" font-weight="700" font-size="2.6" text-anchor="middle" fill="#15303a">9</text><text x="18" y="132.7" font-family="IBM Plex Sans" font-weight="600" font-size="2.8" fill="#15303a">Cold War</text><text x="18" y="135.7" font-family="IBM Plex Sans" font-size="2.2" fill="#15303a" fill-opacity=".65">1950–1990 AD · 1st interval: Jan 1950 – May 1953</text><path d="M11.5 137.6l3.3 2.4-1.3 3.9h-4l-1.3-3.9Z" fill="#fff" stroke="#15303a" stroke-width=".3"/><text x="11.5" y="141.9" font-family="IBM Plex Sans" font-weight="700" font-size="2.6" text-anchor="middle" fill="#15303a">10</text><text x="18" y="140" font-family="IBM Plex Sans" font-weight="600" font-size="2.8" fill="#15303a">Digital Age</text><text x="18" y="143" font-family="IBM Plex Sans" font-size="2.2" fill="#15303a" fill-opacity=".65">1990–2020 AD · 1st interval: Jan 1990 – Jul 1992</text><rect x="7" y="144" width="134" height="7.3" fill="#15303a" fill-opacity=".05"/><path d="M11.5 144.9l3.3 2.4-1.3 3.9h-4l-1.3-3.9Z" fill="#fff" stroke="#15303a" stroke-width=".3"/><text x="11.5" y="149.2" font-family="IBM Plex Sans" font-weight="700" font-size="2.6" text-anchor="middle" fill="#15303a">11</text><text x="18" y="147.3" font-family="IBM Plex Sans" font-weight="600" font-size="2.8" fill="#15303a">Present Day</text><text x="18" y="150.3" font-family="IBM Plex Sans" font-size="2.2" fill="#15303a" fill-opacity=".65">2020–2025 AD · 1st interval: Jan 2020 – Jun 2020</text><path d="M11.5 152.2l3.3 2.4-1.3 3.9h-4l-1.3-3.9Z" fill="#fff" stroke="#15303a" stroke-width=".3"/><text x="11.5" y="156.5" font-family="IBM Plex Sans" font-weight="700" font-size="2.6" text-anchor="middle" fill="#15303a">12</text><text x="18" y="154.6" font-family="IBM Plex Sans" font-weight="600" font-size="2.8" fill="#15303a">Future</text><text x="18" y="157.6" font-family="IBM Plex Sans" font-size="2.2" fill="#15303a" fill-opacity=".65">2025 AD – end of time · 1st interval: 2025–2050 AD</text><text x="7" y="164.6" font-family="IBM Plex Sans" font-weight="700" font-size="3.1" fill="#15303a">End of the game</text><text x="7" y="169.2" font-family="IBM Plex Sans" font-size="2.6" fill="#15303a" fill-opacity=".8">The first to reach 10,000 points in the total row wins (everyone finishes the round),</text><text x="7" y="173.4" font-family="IBM Plex Sans" font-size="2.6" fill="#15303a" fill-opacity=".8">or has the most points when the agreed time runs out (timer in the app).</text><text x="7" y="177.6" font-family="IBM Plex Sans" font-size="2.6" fill="#15303a" fill-opacity=".8">HISTADA app: scan the field and dice with your phone, the questions appear on screen.</text></g><g transform="translate(148.75 0)"><rect width="148" height="210" fill="#fdfcf8"/><rect width="148" height="3" fill="#15303a"/><text x="7" y="15" font-family="Cinzel" font-weight="700" font-size="7" fill="#15303a">PLAYER CHEAT SHEET</text><text x="7" y="20.5" font-family="IBM Plex Sans" font-weight="600" font-size="2.6" letter-spacing=".6" fill="#c9a23a">TURN SEQUENCE AND DICE</text><circle cx="10" cy="27" r="3" fill="#15303a"/><text x="10" y="28.1" font-family="IBM Plex Sans" font-weight="700" font-size="3" text-anchor="middle" fill="#fff">1</text><text x="16" y="28" font-family="IBM Plex Sans" font-size="2.9" fill="#15303a"><tspan font-weight="700">Roll</tspan> · white d12 = epoch, black d12 = time interval, 2 grey d6 = move</text><circle cx="10" cy="34.6" r="3" fill="#15303a"/><text x="10" y="35.7" font-family="IBM Plex Sans" font-weight="700" font-size="3" text-anchor="middle" fill="#fff">2</text><text x="16" y="35.6" font-family="IBM Plex Sans" font-size="2.9" fill="#15303a"><tspan font-weight="700">Move</tspan> · up to as many fields as the d6 show; port = sea route jump for 1 field</text><circle cx="10" cy="42.2" r="3" fill="#15303a"/><text x="10" y="43.300000000000004" font-family="IBM Plex Sans" font-weight="700" font-size="3" text-anchor="middle" fill="#fff">3</text><text x="16" y="43.2" font-family="IBM Plex Sans" font-size="2.9" fill="#15303a"><tspan font-weight="700">Card</tspan> · draw a domain card and put it on your sheet</text><circle cx="10" cy="49.800000000000004" r="3" fill="#15303a"/><text x="10" y="50.900000000000006" font-family="IBM Plex Sans" font-weight="700" font-size="3" text-anchor="middle" fill="#fff">4</text><text x="16" y="50.800000000000004" font-family="IBM Plex Sans" font-size="2.9" fill="#15303a"><tspan font-weight="700">Questions</tspan> · 9 questions: place × time × domain, one per intelligence</text><circle cx="10" cy="57.400000000000006" r="3" fill="#15303a"/><text x="10" y="58.50000000000001" font-family="IBM Plex Sans" font-weight="700" font-size="3" text-anchor="middle" fill="#fff">5</text><text x="16" y="58.400000000000006" font-family="IBM Plex Sans" font-size="2.9" fill="#15303a"><tspan font-weight="700">Points</tspan> · for a correct answer turn that intelligence's dial and the total</text><text x="7" y="68.0" font-family="IBM Plex Sans" font-weight="700" font-size="3.1" fill="#15303a">White d12 · epoch</text><text x="141" y="68.0" font-family="IBM Plex Sans" font-size="2.3" text-anchor="end" fill="#15303a" fill-opacity=".6">the black d12 splits the epoch into 12 intervals</text><rect x="7" y="71" width="134" height="7.3" fill="#15303a" fill-opacity=".05"/><path d="M11.5 71.9l3.3 2.4-1.3 3.9h-4l-1.3-3.9Z" fill="#fff" stroke="#15303a" stroke-width=".3"/><text x="11.5" y="76.2" font-family="IBM Plex Sans" font-weight="700" font-size="2.6" text-anchor="middle" fill="#15303a">1</text><text x="18" y="74.3" font-family="IBM Plex Sans" font-weight="600" font-size="2.8" fill="#15303a">Beginning of the Universe</text><text x="18" y="77.3" font-family="IBM Plex Sans" font-size="2.2" fill="#15303a" fill-opacity=".65">13.8 bn years ago – 4.5 bn years ago · 1st interval: 13.8 bn years ago – 13.03 bn years ago</text><path d="M11.5 79.2l3.3 2.4-1.3 3.9h-4l-1.3-3.9Z" fill="#fff" stroke="#15303a" stroke-width=".3"/><text x="11.5" y="83.5" font-family="IBM Plex Sans" font-weight="700" font-size="2.6" text-anchor="middle" fill="#15303a">2</text><text x="18" y="81.6" font-family="IBM Plex Sans" font-weight="600" font-size="2.8" fill="#15303a">Beginning of the Earth</text><text x="18" y="84.6" font-family="IBM Plex Sans" font-size="2.2" fill="#15303a" fill-opacity=".65">4.5 bn years ago – 5 m years ago · 1st interval: 4.5 bn years ago – 4.13 bn years ago</text><rect x="7" y="85.6" width="134" height="7.3" fill="#15303a" fill-opacity=".05"/><path d="M11.5 86.5l3.3 2.4-1.3 3.9h-4l-1.3-3.9Z" fill="#fff" stroke="#15303a" stroke-width=".3"/><text x="11.5" y="90.8" font-family="IBM Plex Sans" font-weight="700" font-size="2.6" text-anchor="middle" fill="#15303a">3</text><text x="18" y="88.9" font-family="IBM Plex Sans" font-weight="600" font-size="2.8" fill="#15303a">Prehistory</text><text x="18" y="91.9" font-family="IBM Plex Sans" font-size="2.2" fill="#15303a" fill-opacity=".65">5 m years ago – 5000 BC · 1st interval: 5 m years ago – 4.59 m years ago</text><path d="M11.5 93.8l3.3 2.4-1.3 3.9h-4l-1.3-3.9Z" fill="#fff" stroke="#15303a" stroke-width=".3"/><text x="11.5" y="98.1" font-family="IBM Plex Sans" font-weight="700" font-size="2.6" text-anchor="middle" fill="#15303a">4</text><text x="18" y="96.2" font-family="IBM Plex Sans" font-weight="600" font-size="2.8" fill="#15303a">Antiquity</text><text x="18" y="99.2" font-family="IBM Plex Sans" font-size="2.2" fill="#15303a" fill-opacity=".65">5000 BC – 500 AD · 1st interval: 5000 BC – 4542 BC</text><rect x="7" y="100.2" width="134" height="7.3" fill="#15303a" fill-opacity=".05"/><path d="M11.5 101.1l3.3 2.4-1.3 3.9h-4l-1.3-3.9Z" fill="#fff" stroke="#15303a" stroke-width=".3"/><text x="11.5" y="105.4" font-family="IBM Plex Sans" font-weight="700" font-size="2.6" text-anchor="middle" fill="#15303a">5</text><text x="18" y="103.5" font-family="IBM Plex Sans" font-weight="600" font-size="2.8" fill="#15303a">Middle Ages</text><text x="18" y="106.5" font-family="IBM Plex Sans" font-size="2.2" fill="#15303a" fill-opacity=".65">500–1500 AD · 1st interval: 500–583 AD</text><path d="M11.5 108.4l3.3 2.4-1.3 3.9h-4l-1.3-3.9Z" fill="#fff" stroke="#15303a" stroke-width=".3"/><text x="11.5" y="112.7" font-family="IBM Plex Sans" font-weight="700" font-size="2.6" text-anchor="middle" fill="#15303a">6</text><text x="18" y="110.8" font-family="IBM Plex Sans" font-weight="600" font-size="2.8" fill="#15303a">Renaissance – Age of Discovery</text><text x="18" y="113.8" font-family="IBM Plex Sans" font-size="2.2" fill="#15303a" fill-opacity=".65">1500–1800 AD · 1st interval: 1500–1525 AD</text><rect x="7" y="114.8" width="134" height="7.3" fill="#15303a" fill-opacity=".05"/><path d="M11.5 115.7l3.3 2.4-1.3 3.9h-4l-1.3-3.9Z" fill="#fff" stroke="#15303a" stroke-width=".3"/><text x="11.5" y="120" font-family="IBM Plex Sans" font-weight="700" font-size="2.6" text-anchor="middle" fill="#15303a">7</text><text x="18" y="118.1" font-family="IBM Plex Sans" font-weight="600" font-size="2.8" fill="#15303a">Industrial Revolution</text><text x="18" y="121.1" font-family="IBM Plex Sans" font-size="2.2" fill="#15303a" fill-opacity=".65">1800–1900 AD · 1st interval: 1800–1808 AD</text><path d="M11.5 123l3.3 2.4-1.3 3.9h-4l-1.3-3.9Z" fill="#fff" stroke="#15303a" stroke-width=".3"/><text x="11.5" y="127.3" font-family="IBM Plex Sans" font-weight="700" font-size="2.6" text-anchor="middle" fill="#15303a">8</text><text x="18" y="125.4" font-family="IBM Plex Sans" font-weight="600" font-size="2.8" fill="#15303a">Era of the World Wars</text><text x="18" y="128.4" font-family="IBM Plex Sans" font-size="2.2" fill="#15303a" fill-opacity=".65">1900–1950 AD · 1st interval: Jan 1900 – Mar 1904</text><rect x="7" y="129.4" width="134" height="7.3" fill="#15303a" fill-opacity=".05"/><path d="M11.5 130.3l3.3 2.4-1.3 3.9h-4l-1.3-3.9Z" fill="#fff" stroke="#15303a" stroke-width=".3"/><text x="11.5" y="134.6" font-family="IBM Plex Sans" font-weight="700" font-size="2.6" text-anchor="middle" fill="#15303a">9</text><text x="18" y="132.7" font-family="IBM Plex Sans" font-weight="600" font-size="2.8" fill="#15303a">Cold War</text><text x="18" y="135.7" font-family="IBM Plex Sans" font-size="2.2" fill="#15303a" fill-opacity=".65">1950–1990 AD · 1st interval: Jan 1950 – May 1953</text><path d="M11.5 137.6l3.3 2.4-1.3 3.9h-4l-1.3-3.9Z" fill="#fff" stroke="#15303a" stroke-width=".3"/><text x="11.5" y="141.9" font-family="IBM Plex Sans" font-weight="700" font-size="2.6" text-anchor="middle" fill="#15303a">10</text><text x="18" y="140" font-family="IBM Plex Sans" font-weight="600" font-size="2.8" fill="#15303a">Digital Age</text><text x="18" y="143" font-family="IBM Plex Sans" font-size="2.2" fill="#15303a" fill-opacity=".65">1990–2020 AD · 1st interval: Jan 1990 – Jul 1992</text><rect x="7" y="144" width="134" height="7.3" fill="#15303a" fill-opacity=".05"/><path d="M11.5 144.9l3.3 2.4-1.3 3.9h-4l-1.3-3.9Z" fill="#fff" stroke="#15303a" stroke-width=".3"/><text x="11.5" y="149.2" font-family="IBM Plex Sans" font-weight="700" font-size="2.6" text-anchor="middle" fill="#15303a">11</text><text x="18" y="147.3" font-family="IBM Plex Sans" font-weight="600" font-size="2.8" fill="#15303a">Present Day</text><text x="18" y="150.3" font-family="IBM Plex Sans" font-size="2.2" fill="#15303a" fill-opacity=".65">2020–2025 AD · 1st interval: Jan 2020 – Jun 2020</text><path d="M11.5 152.2l3.3 2.4-1.3 3.9h-4l-1.3-3.9Z" fill="#fff" stroke="#15303a" stroke-width=".3"/><text x="11.5" y="156.5" font-family="IBM Plex Sans" font-weight="700" font-size="2.6" text-anchor="middle" fill="#15303a">12</text><text x="18" y="154.6" font-family="IBM Plex Sans" font-weight="600" font-size="2.8" fill="#15303a">Future</text><text x="18" y="157.6" font-family="IBM Plex Sans" font-size="2.2" fill="#15303a" fill-opacity=".65">2025 AD – end of time · 1st interval: 2025–2050 AD</text><text x="7" y="164.6" font-family="IBM Plex Sans" font-weight="700" font-size="3.1" fill="#15303a">End of the game</text><text x="7" y="169.2" font-family="IBM Plex Sans" font-size="2.6" fill="#15303a" fill-opacity=".8">The first to reach 10,000 points in the total row wins (everyone finishes the round),</text><text x="7" y="173.4" font-family="IBM Plex Sans" font-size="2.6" fill="#15303a" fill-opacity=".8">or has the most points when the agreed time runs out (timer in the app).</text><text x="7" y="177.6" font-family="IBM Plex Sans" font-size="2.6" fill="#15303a" fill-opacity=".8">HISTADA app: scan the field and dice with your phone, the questions appear on screen.</text></g><g stroke="#000" stroke-width=".25"><line x1="148.5" y1="0" x2="148.5" y2="4"/><line x1="148.5" y1="206" x2="148.5" y2="210"/></g></svg>